<?xml version="1.0" encoding="UTF-8" standalone="no"?>
<!DOCTYPE svg PUBLIC "-//W3C//DTD SVG 1.1//EN" "http://www.w3.org/Graphics/SVG/1.1/DTD/svg11.dtd">
<svg width="100%" height="100%" viewBox="0 0 1275 1650" version="1.1" xmlns="http://www.w3.org/2000/svg" xmlns:xlink="http://www.w3.org/1999/xlink" xml:space="preserve" xmlns:serif="http://www.serif.com/" style="fill-rule:evenodd;clip-rule:evenodd;stroke-linejoin:round;stroke-miterlimit:2;">
    <rect id="Artboard1" x="0" y="0" width="1275" height="1650" style="fill:white;"/>
    <g id="Artboard11" serif:id="Artboard1">
        <g id="Layer1" transform="matrix(1,0,0,1,-7,0)">
            <g id="ucla" transform="matrix(1,0,0,1,23.1693,1233.93)">
                <g transform="matrix(1,0,0,1,-43.5,5.6301)">
                    <g transform="matrix(1,0,0,1,-674.953,-30.5146)">
                        <g transform="matrix(20.8333,0,0,20.8333,1061.48,324.567)">
                        </g>
                        <text x="850.734px" y="324.567px" style="font-family:'Helvetica';font-size:20.833px;">BS, Computer Science</text>
                    </g>
                    <g transform="matrix(1,0,0,1,196.448,-19.475)">
                        <g transform="matrix(18.75,0,0,18.75,956.761,313.528)">
                        </g>
                        <text x="838.987px" y="313.528px" style="font-family:'Helvetica';font-size:18.75px;">GPA: 3.6 / 4.0</text>
                    </g>
                </g>
                <g transform="matrix(2.08333,0,0,2.08333,-208.717,-475.222)">
                    <g transform="matrix(0.829832,0,0,0.829832,508.894,61.7596)">
                        <g transform="matrix(10.8456,0,0,10.8456,149.209,356.647)">
                        </g>
                        <text x="52.411px" y="356.647px" style="font-family:'Helvetica';font-size:10.846px;">S<tspan x="59.428px 65.242px 71.057px 73.854px 79.668px 85.483px 91.298px 97.113px 99.909px 103.304px 106.101px 111.306px 117.121px 122.936px 125.732px 131.547px 137.362px 143.177px " y="356.647px 356.647px 356.647px 356.647px 356.647px 356.647px 356.647px 356.647px 356.647px 356.647px 356.647px 356.647px 356.647px 356.647px 356.647px 356.647px 356.647px 356.647px ">ep 2016 - Jun 2020</tspan></text>
                    </g>
                    <g transform="matrix(0.802203,0,0,0.802203,163.614,358.47)">
                        <text x="0px" y="0px" style="font-family:'Helvetica-Bold', 'Helvetica';font-weight:700;font-size:13.712px;">UNIVERSITY</text>
                        <text x="86.097px" y="0px" style="font-family:'Helvetica-BoldOblique', 'Helvetica';font-weight:700;font-style:italic;font-size:13.712px;">of</text>
                        <g transform="matrix(13.7122,0,0,13.7122,294.671,0)">
                        </g>
                        <text x="104.22px" y="0px" style="font-family:'Helvetica-Bold', 'Helvetica';font-weight:700;font-size:13.712px;">CALIFORNIA, LOS ANGELES</text>
                    </g>
                </g>
            </g>
            <g id="EDU" transform="matrix(1,0,0,1,-14.2446,1234.63)">
                <g id="_-EDUCATION-" serif:id="(EDUCATION)" transform="matrix(1.71227,0,0,1.71227,39.6888,-32.2871)">
                    <g transform="matrix(15.8172,0,0,15.8172,160.515,151.16)">
                    </g>
                    <text x="53.839px" y="151.16px" style="font-family:'Helvetica-Bold', 'Helvetica';font-weight:700;font-size:15.817px;fill:rgb(94,97,255);">E<tspan x="65.97px 78.975px 91.979px 104.983px 117.988px 129.231px 135.208px 149.092px " y="151.16px 151.16px 151.16px 151.16px 151.16px 151.16px 151.16px 151.16px ">DUCATION</tspan></text>
                </g>
                <g transform="matrix(2.76891,7.67352e-17,-2.22621e-19,-0.00621522,-332.375,229.157)">
                    <rect x="237.072" y="489.521" width="310.389" height="342.941" style="fill:rgb(94,97,255);"/>
                </g>
            </g>
            <g id="desktop" transform="matrix(1,0,0,1,0.182873,958.073)">
                <g id="header" transform="matrix(1,0,0,1,23.5,113.354)">
                    <g transform="matrix(1.72882,0,0,1.72882,851.55,-344.986)">
                        <g transform="matrix(10.8456,0,0,10.8456,149.209,356.647)">
                        </g>
                        <text x="82.089px" y="356.647px" style="font-family:'Helvetica';font-size:10.846px;">J<tspan x="87.294px 93.109px 95.302px 98.098px 101.493px 104.289px 111.306px 117.121px 122.936px 125.732px 131.547px 137.362px 143.177px " y="356.647px 356.647px 356.647px 356.647px 356.647px 356.647px 356.647px 356.647px 356.647px 356.647px 356.647px 356.647px 356.647px ">ul - Aug 2019</tspan></text>
                    </g>
                    <g transform="matrix(1.67126,0,0,1.67126,132.146,271.591)">
                        <text x="0px" y="0px" style="font-family:'Helvetica-Bold', 'Helvetica';font-weight:700;font-size:13.712px;">DESKTOP SIM</text>
                        <text x="97.59px" y="0px" style="font-family:'Helvetica';font-size:11.219px;">/</text>
                        <g transform="matrix(11.2191,0,0,11.2191,265.301,0)">
                        </g>
                        <text x="103.824px" y="0px" style="font-family:'Helvetica-Oblique', 'Helvetica';font-style:italic;font-size:11.219px;">React, JavaScript, HTML, SCSS</text>
                    </g>
                </g>
                <g transform="matrix(1,0,0,1,156.595,403.111)">
                    <g id="description">
                        <text x="0px" y="13.458px" style="font-family:'DINAlternate-Bold', 'DIN Alternate', sans-serif;font-weight:700;font-size:18.75px;">— <tspan x="37.5px 49.31px 58.575px 66.788px 76.163px " y="13.458px 13.458px 13.458px 13.458px 13.458px ">Devel</tspan>oped an inter<tspan x="183.755px 193.13px " y="13.458px 13.458px ">ac</tspan>tiv<tspan x="219.37px 228.745px " y="13.458px 13.458px ">e </tspan>desktop simulator with dr<tspan x="434.518px 443.893px " y="13.458px 13.458px ">ag</tspan>gable, r<tspan x="512.622px 521.997px " y="13.458px 13.458px ">es</tspan>izable, and closable windows for my personal website</text>
                        <g transform="matrix(18.75,0,0,18.75,938.663,42.6249)">
                        </g>
                        <text x="0px" y="42.625px" style="font-family:'DINAlternate-Bold', 'DIN Alternate', sans-serif;font-weight:700;font-size:18.75px;">— <tspan x="37.5px " y="42.625px ">B</tspan>uilt a miniatur<tspan x="158.56px 167.935px " y="42.625px 42.625px ">e </tspan>Spotify app with a pla<tspan x="338.873px 347.195px " y="42.625px 42.625px ">yl</tspan>ist of songs, a pla<tspan x="488.177px 496.5px " y="42.625px 42.625px ">yb</tspan>ar for pausing and jumping ar<tspan x="740.158px 749.533px " y="42.625px 42.625px ">ou</tspan>nd, and volume contr<tspan x="924.454px 933.829px " y="42.625px 42.625px ">ol</tspan></text>
                    </g>
                </g>
            </g>
            <g id="surchin" transform="matrix(1,0,0,1,0.132519,848.013)">
                <g id="header1" serif:id="header" transform="matrix(1,0,0,1,23.5,113.354)">
                    <g transform="matrix(1.72882,0,0,1.72882,851.55,-344.986)">
                        <g transform="matrix(10.8456,0,0,10.8456,149.209,356.647)">
                        </g>
                        <text x="78.466px" y="356.647px" style="font-family:'Helvetica';font-size:10.846px;">J<tspan x="83.672px 89.487px 95.302px 98.098px 101.493px 104.289px 111.306px 117.121px 122.936px 125.732px 131.547px 137.362px 143.177px " y="356.647px 356.647px 356.647px 356.647px 356.647px 356.647px 356.647px 356.647px 356.647px 356.647px 356.647px 356.647px 356.647px ">un - Aug 2020</tspan></text>
                    </g>
                    <g transform="matrix(1.67126,0,0,1.67126,132.146,271.591)">
                        <text x="0px" y="0px" style="font-family:'Helvetica-Bold', 'Helvetica';font-weight:700;font-size:13.712px;">SURCHIN</text>
                        <text x="65.585px" y="0px" style="font-family:'Helvetica';font-size:11.219px;">/</text>
                        <g transform="matrix(11.2191,0,0,11.2191,293.769,0)">
                        </g>
                        <text x="71.819px" y="0px" style="font-family:'Helvetica-Oblique', 'Helvetica';font-style:italic;font-size:11.219px;">React, JavaScript, HTML, SCSS, Material UI</text>
                    </g>
                </g>
                <g transform="matrix(1,0,0,1,156.595,403.111)">
                    <g id="description1" serif:id="description">
                        <text x="0px" y="13.458px" style="font-family:'DINAlternate-Bold', 'DIN Alternate', sans-serif;font-weight:700;font-size:18.75px;">— <tspan x="37.5px " y="13.458px ">B</tspan>uilt a Chr<tspan x="119.366px 128.741px " y="13.458px 13.458px ">om</tspan>e extension for quickly sear<tspan x="360.141px 368.463px " y="13.458px 13.458px ">ch</tspan>ing pinned websites (e.g. Y<tspan x="585.196px 594.571px 604.642px 612.296px 622.366px " y="13.458px 13.458px 13.458px 13.458px 13.458px ">ouTub</tspan>e, Amazon) right fr<tspan x="778.189px 787.564px " y="13.458px 13.458px ">om</tspan> new tab</text>
                        <g transform="matrix(18.75,0,0,18.75,889.499,42.6249)">
                        </g>
                        <text x="0px" y="42.625px" style="font-family:'DINAlternate-Bold', 'DIN Alternate', sans-serif;font-weight:700;font-size:18.75px;">— <tspan x="37.5px " y="42.625px ">I</tspan>mplemented the ability to add custom websites and dr<tspan x="466.04px 475.415px " y="42.625px 42.625px ">ag</tspan> and dr<tspan x="540.005px 549.38px " y="42.625px 42.625px ">op</tspan> functionality for organizing the dashboar<tspan x="879.767px " y="42.625px ">d</tspan></text>
                    </g>
                </g>
            </g>
            <g id="nitsuj" transform="matrix(1,0,0,1,0.132519,709.27)">
                <g id="header2" serif:id="header" transform="matrix(1,0,0,1,23.5,113.354)">
                    <g transform="matrix(1.72882,0,0,1.72882,851.55,-344.986)">
                        <g transform="matrix(10.8456,0,0,10.8456,149.209,356.647)">
                        </g>
                        <text x="80.277px" y="356.647px" style="font-family:'Helvetica';font-size:10.846px;">J<tspan x="85.483px 91.298px 97.113px 99.909px 103.304px 106.101px 111.306px 117.121px 122.936px 125.732px 131.547px 137.362px 143.177px " y="356.647px 356.647px 356.647px 356.647px 356.647px 356.647px 356.647px 356.647px 356.647px 356.647px 356.647px 356.647px 356.647px ">an - Jun 2020</tspan></text>
                    </g>
                    <g transform="matrix(1.67126,0,0,1.67126,132.146,271.591)">
                        <text x="0px" y="0px" style="font-family:'Helvetica-Bold', 'Helvetica';font-weight:700;font-size:13.712px;">NIT SU J.</text>
                        <text x="63.309px" y="0px" style="font-family:'Helvetica';font-size:11.219px;">/</text>
                        <g transform="matrix(11.2191,0,0,11.2191,336.413,0)">
                        </g>
                        <text x="69.543px" y="0px" style="font-family:'Helvetica-Oblique', 'Helvetica';font-style:italic;font-size:11.219px;">React, JavaScript, Express, Stripe API, Redux, SCSS</text>
                    </g>
                </g>
                <g transform="matrix(1,0,0,1,156.595,403.111)">
                    <g id="description2" serif:id="description">
                        <text x="0px" y="13.458px" style="font-family:'DINAlternate-Bold', 'DIN Alternate', sans-serif;font-weight:700;font-size:18.75px;">— <tspan x="37.5px " y="13.458px ">B</tspan>uilt an online stor<tspan x="185.239px 194.614px " y="13.458px 13.458px ">e </tspan>for my personal t-shirt business, which includes a pr<tspan x="612.918px 622.293px " y="13.458px 13.458px ">od</tspan>uct gallery<tspan x="712.17px 716.666px " y="13.458px 13.458px ">, </tspan>shopping cart, and F<tspan x="879.767px 890.863px 902.298px " y="13.458px 13.458px 13.458px ">AQ </tspan>pages</text>
                        <text x="0px" y="42.625px" style="font-family:'DINAlternate-Bold', 'DIN Alternate', sans-serif;font-weight:700;font-size:18.75px;">— <tspan x="37.5px " y="42.625px ">I</tspan>ntegr<tspan x="83.679px 93.054px " y="42.625px 42.625px ">at</tspan>ed with Stripe API to r<tspan x="268.954px 278.329px " y="42.625px 42.625px ">et</tspan>rie<tspan x="304.596px 312.808px 322.183px " y="42.625px 42.625px 42.625px ">ve </tspan>a list of activ<tspan x="423.276px 432.651px " y="42.625px 42.625px ">e </tspan>pr<tspan x="453.836px 463.211px " y="42.625px 42.625px ">od</tspan>ucts and handle check<tspan x="647.26px 656.635px " y="42.625px 42.625px ">ou</tspan>t and pa<tspan x="729.08px 737.402px " y="42.625px 42.625px ">ym</tspan>ent</text>
                        <g transform="matrix(18.75,0,0,18.75,886.917,71.7916)">
                        </g>
                        <text x="0px" y="71.792px" style="font-family:'DINAlternate-Bold', 'DIN Alternate', sans-serif;font-weight:700;font-size:18.75px;">— <tspan x="37.5px " y="71.792px ">U</tspan>tilized nodemailer module for sending confirmation emails and r<tspan x="553.821px 563.196px " y="71.792px 71.792px ">ec</tspan>eiving customer questions or comments</text>
                    </g>
                </g>
            </g>
            <g id="plastic" transform="matrix(1,0,0,1,-0.0460089,570.526)">
                <g id="header3" serif:id="header" transform="matrix(1,0,0,1,23.5,113.354)">
                    <g transform="matrix(1.72882,0,0,1.72882,851.55,-344.986)">
                        <g transform="matrix(10.8456,0,0,10.8456,149.209,356.647)">
                        </g>
                        <text x="58.252px" y="356.647px" style="font-family:'Helvetica';font-size:10.846px;">M<tspan x="67.069px 72.884px 78.09px 80.886px 86.701px 92.516px 98.331px 104.146px 106.942px 110.337px 113.133px 120.15px 123.545px 129.36px 134.566px 140.381px 146.196px " y="356.647px 356.647px 356.647px 356.647px 356.647px 356.647px 356.647px 356.647px 356.647px 356.647px 356.647px 356.647px 356.647px 356.647px 356.647px 356.647px 356.647px ">ay 2021 - Present</tspan></text>
                    </g>
                    <g transform="matrix(1.67126,0,0,1.67126,132.146,271.591)">
                        <text x="0px" y="0px" style="font-family:'Helvetica-Bold', 'Helvetica';font-weight:700;font-size:13.712px;">PLASTIC STYLE</text>
                        <text x="109.775px" y="0px" style="font-family:'Helvetica';font-size:11.219px;">/</text>
                        <g transform="matrix(11.2191,0,0,11.2191,436.499,0)">
                        </g>
                        <text x="116.009px" y="0px" style="font-family:'Helvetica-Oblique', 'Helvetica';font-style:italic;font-size:11.219px;">React, TypeScript, GraphQL, AWS Amplify, Styled Components</text>
                    </g>
                </g>
                <g transform="matrix(1,0,0,1,156.595,403.111)">
                    <g id="description3" serif:id="description">
                        <text x="0px" y="13.458px" style="font-family:'DINAlternate-Bold', 'DIN Alternate', sans-serif;font-weight:700;font-size:18.75px;">— <tspan x="37.5px 47.928px 54.886px 64.261px " y="13.458px 13.458px 13.458px 13.458px ">Crea</tspan>ted a music blog that hosts song and album r<tspan x="426.141px 435.406px 443.729px " y="13.458px 13.458px 13.458px ">evi</tspan>ews, interviews with local artists, and end of year lists</text>
                        <text x="0px" y="42.625px" style="font-family:'DINAlternate-Bold', 'DIN Alternate', sans-serif;font-weight:700;font-size:18.75px;">— <tspan x="37.5px 48.935px 55.893px 64.215px " y="42.625px 42.625px 42.625px 42.625px ">Arch</tspan>itected schema and implemented API for fetching lists of entities with Gr<tspan x="638.708px 648.083px " y="42.625px 42.625px ">ap</tspan>hQL</text>
                        <g transform="matrix(18.75,0,0,18.75,842.624,71.7916)">
                        </g>
                        <text x="0px" y="71.792px" style="font-family:'DINAlternate-Bold', 'DIN Alternate', sans-serif;font-weight:700;font-size:18.75px;">— <tspan x="37.5px " y="71.792px ">B</tspan>uilt a basic text editor with bold and italic style options to help admin users write and edit blog content</text>
                    </g>
                </g>
            </g>
            <g id="PROJ" transform="matrix(1,0,0,1,-14.2314,684.604)">
                <g id="_-EDUCATION-1" serif:id="(EDUCATION)" transform="matrix(1.71227,0,0,1.71227,39.6888,-32.2871)">
                    <g transform="matrix(15.8172,0,0,15.8172,150.168,151.16)">
                    </g>
                    <text x="53.839px" y="151.16px" style="font-family:'Helvetica-Bold', 'Helvetica';font-weight:700;font-size:15.817px;fill:rgb(94,97,255);">P<tspan x="65.97px 78.975px 92.86px 103.238px 115.37px 128.374px 139.618px " y="151.16px 151.16px 151.16px 151.16px 151.16px 151.16px 151.16px ">ROJECTS</tspan></text>
                </g>
                <g transform="matrix(2.82135,8.31574e-17,-2.41253e-19,-0.00621522,-361.084,229.157)">
                    <rect x="237.072" y="489.521" width="310.389" height="342.941" style="fill:rgb(94,97,255);"/>
                </g>
            </g>
            <g id="coupa" transform="matrix(1,0,0,1,0.560622,331.802)">
                <g transform="matrix(1,0,0,1,-193.715,-4.71974)">
                    <g id="subheader">
                        <g transform="matrix(20.8333,0,0,20.8333,628.476,416.686)">
                        </g>
                        <text x="349.934px" y="416.686px" style="font-family:'HelveticaNeue-Bold', 'Helvetica Neue';font-weight:700;font-size:20.833px;">Fr<tspan x="370.017px 382.747px " y="416.686px 416.686px ">on</tspan>tend Engineering Inter<tspan x="616.122px " y="416.686px ">n</tspan></text>
                    </g>
                </g>
                <g id="header4" serif:id="header" transform="matrix(1,0,0,1,23.5,113.354)">
                    <g transform="matrix(1.72882,0,0,1.72882,851.17,-344.945)">
                        <g transform="matrix(10.8456,0,0,10.8456,149.209,356.647)">
                        </g>
                        <text x="78.466px" y="356.647px" style="font-family:'Helvetica';font-size:10.846px;">J<tspan x="83.672px 89.487px 95.302px 98.098px 101.493px 104.289px 111.306px 117.121px 122.936px 125.732px 131.547px 137.362px 143.177px " y="356.647px 356.647px 356.647px 356.647px 356.647px 356.647px 356.647px 356.647px 356.647px 356.647px 356.647px 356.647px 356.647px ">un - Aug 2019</tspan></text>
                    </g>
                    <g transform="matrix(1.67126,0,0,1.67126,132.146,271.591)">
                        <text x="0px" y="0px" style="font-family:'Helvetica-Bold', 'Helvetica';font-weight:700;font-size:13.712px;">COUPA</text>
                        <text x="49.519px" y="0px" style="font-family:'Helvetica';font-size:12.466px;">,</text>
                        <text x="56.1px" y="0px" style="font-family:'Helvetica-Oblique', 'Helvetica';font-style:italic;font-size:11.219px;">San Mateo, CA</text>
                    </g>
                </g>
                <g transform="matrix(1,0,0,1,156.595,429.165)">
                    <g id="description4" serif:id="description">
                        <text x="0px" y="13.458px" style="font-family:'DINAlternate-Bold', 'DIN Alternate', sans-serif;font-weight:700;font-size:18.75px;">— <tspan x="37.5px " y="13.458px ">E</tspan>xtended component libr<tspan x="232.938px 242.313px " y="13.458px 13.458px ">ar</tspan>y with an impr<tspan x="361.34px 370.715px 378.928px 388.303px " y="13.458px 13.458px 13.458px 13.458px ">oved</tspan> input field, which was k<tspan x="586.148px 595.523px " y="13.458px 13.458px ">ey</tspan>boar<tspan x="639.285px 649.017px " y="13.458px 13.458px ">d </tspan>compatible and scr<tspan x="802.386px 811.761px " y="13.458px 13.458px ">ee</tspan>nr<tspan x="838.165px 847.54px " y="13.458px 13.458px ">ea</tspan>der friendly</text>
                        <text x="37.5px" y="34.292px" style="font-family:'DINAlternate-Bold', 'DIN Alternate', sans-serif;font-weight:700;font-size:18.75px;">to comply with the W<tspan x="199.731px 209.106px " y="34.292px 34.292px ">eb</tspan> Content Accessibility Guidelines (WCA<tspan x="518.811px 530.246px " y="34.292px 34.292px ">G)</tspan></text>
                        <text x="0px" y="63.458px" style="font-family:'DINAlternate-Bold', 'DIN Alternate', sans-serif;font-weight:700;font-size:18.75px;">— <tspan x="37.5px " y="63.458px ">D</tspan>esigned and implemented API for formatting and sending form data, allowing file attachment uploads</text>
                        <g transform="matrix(18.75,0,0,18.75,801.123,92.6249)">
                        </g>
                        <text x="0px" y="92.625px" style="font-family:'DINAlternate-Bold', 'DIN Alternate', sans-serif;font-weight:700;font-size:18.75px;">— <tspan x="37.5px " y="92.625px ">I</tspan>ntr<tspan x="64.572px 73.947px " y="92.625px 92.625px ">od</tspan>uced centr<tspan x="165.61px 174.985px " y="92.625px 92.625px ">al</tspan>ized documentation of common React components for inter<tspan x="641.647px 651.718px " y="92.625px 92.625px ">na</tspan>l and exter<tspan x="743.903px 753.973px " y="92.625px 92.625px ">na</tspan>l use</text>
                    </g>
                </g>
            </g>
            <g id="verkada" transform="matrix(1,0,0,1,1.57037,2.26381)">
                <g transform="matrix(1,0,0,1,155.362,425.341)">
                    <g id="description5" serif:id="description">
                        <text x="0px" y="13.458px" style="font-family:'DINAlternate-Bold', 'DIN Alternate', sans-serif;font-weight:700;font-size:18.75px;">— <tspan x="37.5px " y="13.458px ">L</tspan>ed a major ov<tspan x="154.34px 163.715px " y="13.458px 13.458px ">er</tspan>haul of the navigation experience, which involv<tspan x="534.814px 544.189px " y="13.458px 13.458px ">ed</tspan> coor<tspan x="592.447px 602.179px " y="13.458px 13.458px ">di</tspan>nating the entir<tspan x="725.381px 734.756px " y="13.458px 13.458px ">e </tspan>fr<tspan x="751.419px 760.794px " y="13.458px 13.458px ">on</tspan>tend team and</text>
                        <text x="37.5px" y="36.375px" style="font-family:'DINAlternate-Bold', 'DIN Alternate', sans-serif;font-weight:700;font-size:18.75px;">r<tspan x="44.458px 53.833px " y="36.375px 36.375px ">ed</tspan>esigning base page la<tspan x="233.817px 242.029px 251.404px " y="36.375px 36.375px 36.375px ">you</tspan>ts, to impr<tspan x="340.915px 350.29px 358.502px 367.877px " y="36.375px 36.375px 36.375px 36.375px ">ove </tspan>pr<tspan x="389.063px 398.438px " y="36.375px 36.375px ">od</tspan>uct scalability and user experience</text>
                        <text x="0px" y="63.458px" style="font-family:'DINAlternate-Bold', 'DIN Alternate', sans-serif;font-weight:700;font-size:18.75px;">— <tspan x="37.5px " y="63.458px ">D</tspan>esigned a common de<tspan x="222.043px 230.365px " y="63.458px 63.458px ">vi</tspan>ce schema and implemented the de<tspan x="514.133px 522.455px " y="63.458px 63.458px ">vi</tspan>ces page, a high tr<tspan x="670.248px 679.623px 684.494px 689.703px " y="63.458px 63.458px 63.458px 63.458px ">affi</tspan>c page for users to view and</text>
                        <text x="37.5px" y="86.375px" style="font-family:'DINAlternate-Bold', 'DIN Alternate', sans-serif;font-weight:700;font-size:18.75px;">manage a consolidated list of their de<tspan x="330.212px 338.535px " y="86.375px 86.375px ">vi</tspan>ces fr<tspan x="386.389px 395.764px " y="86.375px 86.375px ">om</tspan> acr<tspan x="440.891px 450.266px " y="86.375px 86.375px ">os</tspan>s all pr<tspan x="512.988px 522.363px " y="86.375px 86.375px ">od</tspan>uct lines</text>
                        <text x="0px" y="113.458px" style="font-family:'DINAlternate-Bold', 'DIN Alternate', sans-serif;font-weight:700;font-size:18.75px;">— <tspan x="37.5px " y="113.458px ">E</tspan>xtended the de<tspan x="163.065px 171.387px " y="113.458px 113.458px ">vi</tspan>ces page to support the ability to bulk edit de<tspan x="524.13px 532.452px " y="113.458px 113.458px ">vi</tspan>ce settings and work<tspan x="699.115px 708.49px " y="113.458px 113.458px ">ed</tspan> thr<tspan x="744.955px 754.33px " y="113.458px 113.458px ">ou</tspan>gh the UX and technical</text>
                        <text x="37.5px" y="136.375px" style="font-family:'DINAlternate-Bold', 'DIN Alternate', sans-serif;font-weight:700;font-size:18.75px;">challenges of handling incompatible de<tspan x="343.423px 351.746px " y="136.375px 136.375px ">vi</tspan>ce settings and partial failur<tspan x="574.448px 583.823px " y="136.375px 136.375px ">es</tspan> when submitting changes</text>
                        <text x="0px" y="163.458px" style="font-family:'DINAlternate-Bold', 'DIN Alternate', sans-serif;font-weight:700;font-size:18.75px;">— <tspan x="37.5px " y="163.458px ">O</tspan>ptimized the performance of se<tspan x="293.161px 301.373px 310.748px 317.706px 327.081px " y="163.458px 163.458px 163.458px 163.458px 163.458px ">veral</tspan> pages with memoization and r<tspan x="573.102px 582.477px " y="163.458px 163.458px ">ed</tspan>uced unnecessary component r<tspan x="837.936px 847.311px 854.269px 863.644px " y="163.458px 163.458px 163.458px 163.458px ">eren</tspan>ders</text>
                        <text x="0px" y="190.542px" style="font-family:'DINAlternate-Bold', 'DIN Alternate', sans-serif;font-weight:700;font-size:18.75px;">— <tspan x="37.5px " y="190.542px ">S</tspan>tandar<tspan x="98.978px 108.71px " y="190.542px 190.542px ">di</tspan>zed multiple ar<tspan x="230.484px 239.859px " y="190.542px 190.542px ">ea</tspan>s of the component libr<tspan x="428.979px 438.354px " y="190.542px 190.542px ">ar</tspan>y including icon usage and wr<tspan x="677.765px 687.14px " y="190.542px 190.542px ">ot</tspan>e a script r<tspan x="775.598px 784.973px " y="190.542px 190.542px ">ed</tspan>ucing the de<tspan x="890.039px 898.361px " y="190.542px 190.542px ">v </tspan>time</text>
                        <text x="37.5px" y="213.458px" style="font-family:'DINAlternate-Bold', 'DIN Alternate', sans-serif;font-weight:700;font-size:18.75px;">for adding a new icon to the codebase fr<tspan x="348.798px 358.173px " y="213.458px 213.458px ">om</tspan> 10 minutes to 10 seconds</text>
                        <g transform="matrix(18.75,0,0,18.75,932.419,240.542)">
                        </g>
                        <text x="0px" y="240.542px" style="font-family:'DINAlternate-Bold', 'DIN Alternate', sans-serif;font-weight:700;font-size:18.75px;">— <tspan x="37.5px " y="240.542px ">O</tspan>rganized web guild, a weekly meeting for fr<tspan x="387.643px 397.018px " y="240.542px 240.542px ">on</tspan>tend engineers to announce major changes and discuss web topics</text>
                    </g>
                </g>
                <g transform="matrix(1,0,0,1,-192.934,-4.71974)">
                    <g id="subheader1" serif:id="subheader">
                        <g transform="matrix(20.8333,0,0,20.8333,533.601,416.686)">
                        </g>
                        <text x="349.934px" y="416.686px" style="font-family:'HelveticaNeue-Bold', 'Helvetica Neue';font-weight:700;font-size:20.833px;">Fr<tspan x="370.017px 382.747px " y="416.686px 416.686px ">on</tspan>tend Engineer</text>
                    </g>
                </g>
                <g id="header5" serif:id="header" transform="matrix(1,0,0,1,23.5,113.354)">
                    <g transform="matrix(1.72882,0,0,1.72882,849.55,-344.986)">
                        <g transform="matrix(10.8456,0,0,10.8456,149.209,356.647)">
                        </g>
                        <text x="64.877px" y="356.647px" style="font-family:'Helvetica';font-size:10.846px;">J<tspan x="70.083px 75.898px 78.09px 80.886px 86.701px 92.516px 98.331px 104.146px 106.942px 110.337px 113.133px 120.15px 123.545px 129.36px 134.566px 140.381px 146.196px " y="356.647px 356.647px 356.647px 356.647px 356.647px 356.647px 356.647px 356.647px 356.647px 356.647px 356.647px 356.647px 356.647px 356.647px 356.647px 356.647px 356.647px ">ul 2020 - Present</tspan></text>
                    </g>
                    <g transform="matrix(1.67126,0,0,1.67126,132.146,271.591)">
                        <text x="0px" y="0px" style="font-family:'Helvetica-Bold', 'Helvetica';font-weight:700;font-size:13.712px;">VERKADA</text>
                        <text x="67.805px" y="0px" style="font-family:'Helvetica';font-size:12.466px;">,</text>
                        <g transform="matrix(11.2191,0,0,11.2191,150.465,0)">
                        </g>
                        <text x="74.385px" y="0px" style="font-family:'Helvetica-Oblique', 'Helvetica';font-style:italic;font-size:11.219px;">San Mateo, CA</text>
                    </g>
                </g>
            </g>
            <g id="EXP" transform="matrix(1,0,0,1,-14.2446,116.823)">
                <g id="_-EDUCATION-2" serif:id="(EDUCATION)" transform="matrix(1.71227,0,0,1.71227,39.6888,-32.2871)">
                    <g transform="matrix(15.8172,0,0,15.8172,170.036,151.16)">
                    </g>
                    <text x="53.839px" y="151.16px" style="font-family:'Helvetica-Bold', 'Helvetica';font-weight:700;font-size:15.817px;fill:rgb(94,97,255);">E<tspan x="65.97px 78.102px 90.234px 102.365px 115.37px 121.346px 133.478px 146.482px 159.486px " y="151.16px 151.16px 151.16px 151.16px 151.16px 151.16px 151.16px 151.16px 151.16px ">XPERIENCE</tspan></text>
                </g>
                <g transform="matrix(2.71665,7.03344e-17,-2.04051e-19,-0.00621522,-303.761,229.157)">
                    <rect x="237.072" y="489.521" width="310.389" height="342.941" style="fill:rgb(94,97,255);"/>
                </g>
            </g>
            <g id="skills" transform="matrix(1,0,0,1,-0.42181,-1208.24)">
                <g id="skills-header" serif:id="skills header" transform="matrix(1,0,0,1,0.78125,1078.57)">
                    <g id="header6" serif:id="header">
                    </g>
                    <g transform="matrix(1,0,0,1,156.595,363.737)">
                        <g id="description6" serif:id="description">
                            <text x="0px" y="19.042px" style="font-family:'HelveticaNeue-Bold', 'Helvetica Neue';font-weight:700;font-size:20.833px;">Languages</text>
                            <g transform="matrix(20.8333,0,0,20.8333,129.979,48.2083)">
                            </g>
                            <text x="0px" y="48.208px" style="font-family:'HelveticaNeue-Bold', 'Helvetica Neue';font-weight:700;font-size:20.833px;">Frameworks</text>
                        </g>
                    </g>
                </g>
                <g transform="matrix(1,0,0,1,301.595,1444)">
                    <text x="0px" y="17.625px" style="font-family:'DINAlternate-Bold', 'DIN Alternate', sans-serif;font-weight:700;font-size:18.75px;">T<tspan x="7.297px 15.619px " y="17.625px 17.625px ">yp</tspan>eScript, J<tspan x="98.438px 107.813px " y="17.625px 17.625px ">av</tspan>aScript, HTML, CSS, SCSS, Python, C++</text>
                    <text x="0px" y="46.792px" style="font-family:'DINAlternate-Bold', 'DIN Alternate', sans-serif;font-weight:700;font-size:18.75px;">React, Styled Components, Redux, Gr<tspan x="290.03px 299.405px " y="46.792px 46.792px ">ap</tspan>hQL, React T<tspan x="405.771px 415.146px " y="46.792px 46.792px ">es</tspan>ting Libr<tspan x="489.761px 499.136px 506.433px 513.034px 517.529px " y="46.792px 46.792px 46.792px 46.792px 46.792px ">ary, </tspan>Jest, React Nativ<tspan x="651.947px " y="46.792px ">e</tspan></text>
                </g>
            </g>
            <g id="SKILLS" transform="matrix(0.999459,0,0,1,-13.3593,-19.7865)">
                <g id="_-EDUCATION-3" serif:id="(EDUCATION)" transform="matrix(1.71227,0,0,1.71227,39.6888,-32.2871)">
                    <g transform="matrix(15.8172,0,0,15.8172,117.988,151.16)">
                    </g>
                    <text x="53.839px" y="151.16px" style="font-family:'Helvetica-Bold', 'Helvetica';font-weight:700;font-size:15.817px;fill:rgb(94,97,255);">S<tspan x="65.97px 78.975px 84.951px 96.194px 107.438px " y="151.16px 151.16px 151.16px 151.16px 151.16px ">KILLS</tspan></text>
                </g>
                <g transform="matrix(2.99124,1.03963e-16,-3.01612e-19,-0.00621522,-454.091,229.157)">
                    <rect x="237.072" y="489.521" width="310.389" height="342.941" style="fill:rgb(94,97,255);"/>
                </g>
            </g>
            <g id="HEADER" transform="matrix(1,0,0,1,-14,-44)">
                <g transform="matrix(1.34108,0,0,1.34108,248.345,97.601)">
                    <g transform="matrix(46.1658,0,0,46.1658,127.455,71.9052)">
                    </g>
                    <text x="-85.453px" y="71.905px" style="font-family:'Helvetica-Bold', 'Helvetica';font-weight:700;font-size:46.166px;">Justin Ma</text>
                </g>
                <g transform="matrix(1,0,0,1,-171.285,80.2296)">
                    <g transform="matrix(22.9167,0,0,22.9167,1769.91,113.852)">
                    </g>
                    <text x="628.445px" y="113.852px" style="font-family:'Helvetica';font-size:22.917px;">https://majust.in    /    justinma98@ucla.edu    /    github.com/just-ma</text>
                </g>
                <g transform="matrix(1,0,0,1,21,44)">
                    <rect x="241.562" y="102.79" width="15.337" height="12.672" style="fill:white;"/>
                </g>
                <g transform="matrix(1,0,0,1,20.9178,40.4568)">
                    <circle cx="248.598" cy="112.802" r="4.315"/>
                </g>
            </g>
        </g>
    </g>
</svg>
